<svg width="165" height="179" viewBox="0 0 165 179" fill="none" xmlns="http://www.w3.org/2000/svg">
<path d="M45.12 111V40.92H64.32V111H45.12ZM5.76 111V40.92H24.96V111H5.76ZM15.36 83.16V66.84H54.72V83.16H15.36Z" fill="black"/>
<path d="M51.576 151L73.176 80.92H99.096L120.696 151H99.576L86.232 97.24H86.04L72.696 151H51.576ZM67.416 138.04V122.2H104.856V138.04H67.416Z" fill="black"/>
<path d="M131.432 111.96C126.184 111.96 121.16 111.416 116.36 110.328C111.56 109.24 107.592 107.736 104.456 105.816L108.488 89.496C110.728 90.712 113.256 91.832 116.072 92.856C118.952 93.88 121.832 94.68 124.712 95.256C127.656 95.832 130.312 96.12 132.68 96.12C135.496 96.12 137.64 95.672 139.112 94.776C140.584 93.88 141.32 92.568 141.32 90.84C141.32 90.008 141.096 89.272 140.648 88.632C140.2 87.928 139.432 87.288 138.344 86.712C137.256 86.072 135.72 85.432 133.736 84.792C131.816 84.088 129.352 83.32 126.344 82.488C122.568 81.464 119.304 80.248 116.552 78.84C113.8 77.432 111.528 75.832 109.736 74.04C107.944 72.248 106.6 70.232 105.704 67.992C104.872 65.752 104.456 63.288 104.456 60.6C104.456 53.944 107.016 48.856 112.136 45.336C117.32 41.752 124.712 39.96 134.312 39.96C138.984 39.96 143.592 40.376 148.136 41.208C152.744 41.976 156.744 43.096 160.136 44.568L156.104 60.888C152.648 59.224 149 57.976 145.16 57.144C141.384 56.248 137.672 55.8 134.024 55.8C130.824 55.8 128.456 56.184 126.92 56.952C125.384 57.656 124.616 58.84 124.616 60.504C124.616 61.4 124.808 62.232 125.192 63C125.576 63.704 126.28 64.376 127.304 65.016C128.328 65.656 129.736 66.328 131.528 67.032C133.384 67.736 135.752 68.504 138.632 69.336C142.728 70.552 146.216 71.864 149.096 73.272C151.976 74.68 154.312 76.248 156.104 77.976C157.96 79.64 159.304 81.56 160.136 83.736C161.032 85.848 161.48 88.216 161.48 90.84C161.48 97.624 158.856 102.84 153.608 106.488C148.424 110.136 141.032 111.96 131.432 111.96Z" fill="black"/>
</svg>
